<svg xmlns="http://www.w3.org/2000/svg" width="300" height="300" viewBox="0 0 300 300" version="1.1"><path d="M 237.434 200.500 C 237.433 214.250, 237.574 220.014, 237.747 213.308 C 237.919 206.603, 237.920 195.353, 237.748 188.308 C 237.576 181.264, 237.434 186.750, 237.434 200.500 M 62.431 201.500 C 62.432 214.700, 62.574 219.962, 62.747 213.193 C 62.921 206.424, 62.920 195.624, 62.746 189.193 C 62.572 182.762, 62.431 188.300, 62.431 201.500 M 87 275 L 87 288 150 288 L 213 288 213 275 L 213 262 150 262 L 87 262 87 275 M 88 275 L 88 287 150 287 L 212 287 212 275 L 212 263 150 263 L 88 263 88 275" stroke="none" fill="#741cb5" fill-rule="evenodd"/><path d="M 142.500 12.713 C 138.470 13.682, 137.934 15.022, 137.282 25.752 C 136.897 32.094, 136.483 33.364, 133.981 35.865 C 132.408 37.439, 129.856 38.980, 128.310 39.290 C 126.765 39.601, 124.150 40.406, 122.500 41.081 C 120.850 41.755, 119.050 42.407, 118.500 42.529 C 112.994 43.748, 101.969 48.655, 100.765 50.422 C 100.361 51.015, 100.024 51.167, 100.015 50.759 C 99.973 48.690, 83.367 60.505, 76.215 67.693 C 73.858 70.062, 71.496 72, 70.965 72 C 70.434 72, 70 72.451, 70 73.002 C 70 73.553, 68.276 75.690, 66.169 77.752 C 61.417 82.401, 55.544 89.989, 56.666 90.030 C 57.125 90.047, 56.713 90.519, 55.750 91.080 C 54.788 91.641, 54 92.715, 54 93.466 C 54 94.218, 53.663 94.983, 53.250 95.167 C 52.181 95.642, 44.451 110.804, 43.086 115.104 C 40.916 121.938, 40.611 123.614, 39.473 135 C 38.176 147.969, 37.953 152.852, 37.506 178 C 36.772 219.291, 36.157 223.619, 30.876 224.675 C 26.370 225.576, 25 229.255, 25 240.450 L 25 250 150 250 L 275 250 274.993 240.250 C 274.988 232.416, 274.620 229.943, 273.119 227.667 C 272.092 226.110, 270.970 224.872, 270.626 224.917 C 264.099 225.778, 262.987 218.722, 262.497 173.341 C 262.330 157.854, 261.954 144.354, 261.662 143.341 C 261.370 142.329, 260.826 137.675, 260.453 133 C 260.080 128.325, 258.876 121.575, 257.777 118 C 255.635 111.030, 247.620 94.923, 243.818 89.946 C 238.163 82.544, 227.890 70.780, 224.881 68.257 C 223.071 66.741, 219.995 64.040, 218.045 62.255 C 216.095 60.470, 213.986 59.007, 213.357 59.005 C 212.728 59.002, 211.990 58.438, 211.717 57.750 C 211.443 57.063, 209.483 55.604, 207.360 54.510 C 205.237 53.415, 203.275 52.235, 203 51.889 C 202.139 50.802, 190 44.938, 190 45.608 C 190 45.958, 189.403 45.749, 188.673 45.143 C 187.450 44.129, 176.067 40.283, 171.926 39.486 C 168.798 38.883, 165.237 35.987, 164.025 33.059 C 162.976 30.528, 162.551 27.089, 162.127 17.699 C 162.027 15.501, 161.253 14.586, 158.532 13.449 C 155.230 12.069, 146.788 11.682, 142.500 12.713 M 138.500 63.937 C 135.750 64.391, 130.800 65.533, 127.500 66.474 C 124.200 67.415, 120.277 68.418, 118.782 68.702 C 117.287 68.985, 115.545 69.844, 114.910 70.609 C 114.275 71.374, 112.910 72, 111.878 72 C 110.845 72, 109.993 72.338, 109.984 72.750 C 109.976 73.162, 107.775 74.576, 105.094 75.892 C 100.447 78.173, 97.349 80.605, 88.611 88.837 C 79.522 97.399, 68.270 116.693, 66.355 127 C 63.650 141.557, 63.391 145.713, 62.469 189.250 L 61.713 225 150.010 225 L 238.308 225 237.621 188.250 C 237.243 168.037, 236.718 149.250, 236.454 146.500 C 236.191 143.750, 235.841 139.458, 235.678 136.963 C 235.515 134.467, 235.044 131.880, 234.632 131.213 C 234.219 130.546, 234.102 130, 234.371 130 C 234.640 130, 234.416 128.537, 233.872 126.750 C 233.329 124.963, 232.658 122.385, 232.381 121.021 C 232.104 119.658, 231.542 118.308, 231.132 118.021 C 230.722 117.735, 229.767 115.925, 229.011 114 C 228.254 112.075, 226.817 109.427, 225.817 108.115 C 224.818 106.803, 224 105.288, 224 104.747 C 224 103.804, 222.884 102.387, 213.746 91.723 C 205.459 82.052, 184.990 68.823, 175.497 67.003 C 175.238 66.953, 172.883 66.260, 170.263 65.462 C 164.509 63.710, 145.424 62.793, 138.500 63.937 M 88 275 L 88 287 150 287 L 212 287 212 275 L 212 263 150 263 L 88 263 88 275" stroke="none" fill="#000" fill-rule="evenodd"/></svg>
